HIERARCHY
ROOT Model
{
	OFFSET 0 0 0
	CHANNELS 6 Xposition Yposition Zposition Zrotation Xrotation Yrotation
	JOINT Model1
	{
		OFFSET 0 -2.25479 2.99384
		CHANNELS 3 Zrotation Xrotation Yrotation
		JOINT Model2
		{
			OFFSET 12.111 0 0
			CHANNELS 3 Zrotation Xrotation Yrotation
			JOINT Model3
			{
				OFFSET 11.5502 0 0
				CHANNELS 3 Zrotation Xrotation Yrotation
				JOINT Model4
				{
					OFFSET 11.781 0 0
					CHANNELS 3 Zrotation Xrotation Yrotation
					JOINT Model5
					{
						OFFSET 20.0601 0 0
						CHANNELS 3 Zrotation Xrotation Yrotation
						JOINT Model6
						{
							OFFSET 11.1962 0 0
							CHANNELS 3 Zrotation Xrotation Yrotation
							End Site
							{
								OFFSET 0 0 0
							}
						}
					}
					JOINT Model7
					{
						OFFSET 10.8223 0.417534 3.51114
						CHANNELS 3 Zrotation Xrotation Yrotation
						JOINT Model8
						{
							OFFSET -6.07944 0 0
							CHANNELS 3 Zrotation Xrotation Yrotation
							JOINT Model9
							{
								OFFSET -0.277405 10.39 -0.051239
								CHANNELS 3 Zrotation Xrotation Yrotation
								JOINT Model10
								{
									OFFSET -3.43909 -0.282043 1.86679
									CHANNELS 3 Zrotation Xrotation Yrotation
									JOINT Model11
									{
										OFFSET 13.0269 0 0
										CHANNELS 3 Zrotation Xrotation Yrotation
										JOINT Model12
										{
											OFFSET 10.8866 0 0
											CHANNELS 3 Zrotation Xrotation Yrotation
											JOINT Model13
											{
												OFFSET 16.7317 0 0
												CHANNELS 3 Zrotation Xrotation Yrotation
												JOINT Model14
												{
													OFFSET 11.8292 0 0
													CHANNELS 3 Zrotation Xrotation Yrotation
													JOINT Model15
													{
														OFFSET 4.82751 -3.73566 -0.836517
														CHANNELS 3 Zrotation Xrotation Yrotation
														JOINT Model16
														{
															OFFSET 3.75311 -0.0582886 -0.0186462
															CHANNELS 3 Zrotation Xrotation Yrotation
															JOINT Model17
															{
																OFFSET 2.88689 0.0192337 0.014801
																CHANNELS 3 Zrotation Xrotation Yrotation
																End Site
																{
																	OFFSET 0 0 0
																}
															}
														}
													}
													JOINT Model18
													{
														OFFSET 9.72197 -3.06458 0.23877
														CHANNELS 3 Zrotation Xrotation Yrotation
														JOINT Model19
														{
															OFFSET 4.61131 0 0
															CHANNELS 3 Zrotation Xrotation Yrotation
															JOINT Model20
															{
																OFFSET 2.8969 -7.62939e-006 0
																CHANNELS 3 Zrotation Xrotation Yrotation
																End Site
																{
																	OFFSET 0 0 0
																}
															}
														}
													}
													JOINT Model21
													{
														OFFSET 9.54431 -0.745064 0.588928
														CHANNELS 3 Zrotation Xrotation Yrotation
														JOINT Model22
														{
															OFFSET 5.33978 0 0
															CHANNELS 3 Zrotation Xrotation Yrotation
															JOINT Model23
															{
																OFFSET 3.03619 7.62939e-006 0
																CHANNELS 3 Zrotation Xrotation Yrotation
																End Site
																{
																	OFFSET 0 0 0
																}
															}
														}
													}
													JOINT Model24
													{
														OFFSET 9.47758 1.51286 0.485107
														CHANNELS 3 Zrotation Xrotation Yrotation
														JOINT Model25
														{
															OFFSET 4.96136 7.62939e-006 0
															CHANNELS 3 Zrotation Xrotation Yrotation
															JOINT Model26
															{
																OFFSET 2.51965 0 0
																CHANNELS 3 Zrotation Xrotation Yrotation
																End Site
																{
																	OFFSET 0 0 0
																}
															}
														}
													}
													JOINT Model27
													{
														OFFSET 9.34247 3.34117 -0.239288
														CHANNELS 3 Zrotation Xrotation Yrotation
														JOINT Model28
														{
															OFFSET 3.28259 2.28882e-005 0
															CHANNELS 3 Zrotation Xrotation Yrotation
															JOINT Model29
															{
																OFFSET 2.1292 0 0
																CHANNELS 3 Zrotation Xrotation Yrotation
																End Site
																{
																	OFFSET 0 0 0
																}
															}
														}
													}
												}
											}
										}
									}
								}
							}
						}
					}
					JOINT Model30
					{
						OFFSET 10.8223 0.4179 -3.51108
						CHANNELS 3 Zrotation Xrotation Yrotation
						JOINT Model31
						{
							OFFSET 6.07944 0 0
							CHANNELS 3 Zrotation Xrotation Yrotation
							JOINT Model32
							{
								OFFSET 0.277405 -10.39 0.051239
								CHANNELS 3 Zrotation Xrotation Yrotation
								JOINT Model33
								{
									OFFSET 3.43909 0.282043 -1.86679
									CHANNELS 3 Zrotation Xrotation Yrotation
									JOINT Model34
									{
										OFFSET -13.0269 0 0
										CHANNELS 3 Zrotation Xrotation Yrotation
										JOINT Model35
										{
											OFFSET -10.8866 0 0
											CHANNELS 3 Zrotation Xrotation Yrotation
											JOINT Model36
											{
												OFFSET -16.7317 0 0
												CHANNELS 3 Zrotation Xrotation Yrotation
												JOINT Model37
												{
													OFFSET -11.8292 0 0
													CHANNELS 3 Zrotation Xrotation Yrotation
													JOINT Model38
													{
														OFFSET -4.82751 3.73566 0.836517
														CHANNELS 3 Zrotation Xrotation Yrotation
														JOINT Model39
														{
															OFFSET -3.75311 0.0582886 0.0186462
															CHANNELS 3 Zrotation Xrotation Yrotation
															JOINT Model40
															{
																OFFSET -2.88687 -0.0192337 -0.014801
																CHANNELS 3 Zrotation Xrotation Yrotation
																End Site
																{
																	OFFSET 0 0 0
																}
															}
														}
													}
													JOINT Model41
													{
														OFFSET -9.72198 3.06459 -0.23877
														CHANNELS 3 Zrotation Xrotation Yrotation
														JOINT Model42
														{
															OFFSET -4.6113 0 0
															CHANNELS 3 Zrotation Xrotation Yrotation
															JOINT Model43
															{
																OFFSET -2.89691 0 0
																CHANNELS 3 Zrotation Xrotation Yrotation
																End Site
																{
																	OFFSET 0 0 0
																}
															}
														}
													}
													JOINT Model44
													{
														OFFSET -9.54431 0.745064 -0.588928
														CHANNELS 3 Zrotation Xrotation Yrotation
														JOINT Model45
														{
															OFFSET -5.33978 0 0
															CHANNELS 3 Zrotation Xrotation Yrotation
															JOINT Model46
															{
																OFFSET -3.03619 -1.52588e-005 0
																CHANNELS 3 Zrotation Xrotation Yrotation
																End Site
																{
																	OFFSET 0 0 0
																}
															}
														}
													}
													JOINT Model47
													{
														OFFSET -9.4776 -1.51286 -0.485107
														CHANNELS 3 Zrotation Xrotation Yrotation
														JOINT Model48
														{
															OFFSET -4.96136 -1.52588e-005 0
															CHANNELS 3 Zrotation Xrotation Yrotation
															JOINT Model49
															{
																OFFSET -2.51965 0 0
																CHANNELS 3 Zrotation Xrotation Yrotation
																End Site
																{
																	OFFSET 0 0 0
																}
															}
														}
													}
													JOINT Model50
													{
														OFFSET -9.34247 -3.34118 0.239288
														CHANNELS 3 Zrotation Xrotation Yrotation
														JOINT Model51
														{
															OFFSET -3.28259 -2.28882e-005 0
															CHANNELS 3 Zrotation Xrotation Yrotation
															JOINT Model52
															{
																OFFSET -2.12921 0 0
																CHANNELS 3 Zrotation Xrotation Yrotation
																End Site
																{
																	OFFSET 0 0 0
																}
															}
														}
													}
												}
											}
										}
									}
								}
							}
						}
					}
				}
			}
		}
	}
	JOINT Model53
	{
		OFFSET 4.38025 -2.14632 -1.11517
		CHANNELS 3 Zrotation Xrotation Yrotation
		JOINT Model54
		{
			OFFSET 0 0 4.94998
			CHANNELS 3 Zrotation Xrotation Yrotation
			JOINT Model55
			{
				OFFSET 18.5642 0 0
				CHANNELS 3 Zrotation Xrotation Yrotation
				JOINT Model56
				{
					OFFSET 21.2884 0 0
					CHANNELS 3 Zrotation Xrotation Yrotation
					JOINT Model57
					{
						OFFSET 30.261 0 0
						CHANNELS 3 Zrotation Xrotation Yrotation
						JOINT Model58
						{
							OFFSET 11.7259 0 0
							CHANNELS 3 Zrotation Xrotation Yrotation
							JOINT Model59
							{
								OFFSET 10.682 0 0
								CHANNELS 3 Zrotation Xrotation Yrotation
								End Site
								{
									OFFSET 0 0 0
								}
							}
						}
					}
				}
			}
		}
	}
	JOINT Model60
	{
		OFFSET -4.38025 -2.14632 -1.11517
		CHANNELS 3 Zrotation Xrotation Yrotation
		JOINT Model61
		{
			OFFSET 0 0 -4.94998
			CHANNELS 3 Zrotation Xrotation Yrotation
			JOINT Model62
			{
				OFFSET -18.5642 0 0
				CHANNELS 3 Zrotation Xrotation Yrotation
				JOINT Model63
				{
					OFFSET -21.2884 0 0
					CHANNELS 3 Zrotation Xrotation Yrotation
					JOINT Model64
					{
						OFFSET -30.261 0 0
						CHANNELS 3 Zrotation Xrotation Yrotation
						JOINT Model65
						{
							OFFSET -11.7259 0 0
							CHANNELS 3 Zrotation Xrotation Yrotation
							JOINT Model66
							{
								OFFSET -10.682 0 0
								CHANNELS 3 Zrotation Xrotation Yrotation
								End Site
								{
									OFFSET 0 0 0
								}
							}
						}
					}
				}
			}
		}
	}
}
MOTION
Frames: 4
Frame Time: 0.033333
-629.872 128.395 -724.036 32.9865 -51.8293 39.7216 -180 4.29621e-031 -90 3.16779 -2.81246 -0.229897 6.33575 -5.63376 -0.30417 6.33575 -5.63332 -0.304218 -4.74584 13.3662 4.37384 -11.0206 14.6208 -2.33341 120.092 75.5343 58.4939 29.3037 23.2892 -3.25629 -167.277 84.4999 48.8109 101.909 6.3038 26.1241 -1.57513e-005 41.7075 3.98422e-005 -66.7809 24.5729 0.614283 1.82225e-007 36.2085 -6.6693e-007 10.1545 -1.79288 -19.976 -72.0648 39.0385 39.3397 33.3638 2.10362 14.835 0.588947 0.308273 6.35287 -99.6409 81.413 100.35 -0.0181409 2.7751e-005 -0.117315 -0.124139 0.00241108 -0.799296 -79.8382 79.5773 80.5374 -0.000225764 -0.000220949 2.21687e-005 -0.000956209 0.000122859 -2.73556e-005 -66.7416 80.4058 67.2171 -0.00043712 1.59183e-005 -2.73467e-005 -0.000136587 -0.000109328 -5.46767e-005 -6.42159 81.2158 8.01779 -0.000218554 1.68712e-005 0.000212113 0.000901601 -0.000184852 -0.000218602 -59.9282 75.5373 58.5147 -7.92339 5.29933 3.73489 -167.277 84.4999 48.8109 -139.013 9.35892 12.6117 -9.90292e-006 30.1116 3.36208e-005 -99.6011 17.0008 0.628292 -5.85166e-006 25.2352 2.44271e-006 -18.2455 1.95378 -12.1227 -72.0648 39.0385 39.3397 33.3638 2.10361 14.835 0.588946 0.308273 6.35287 -99.6409 81.413 100.35 -0.0181409 3.00689e-005 -0.117315 -0.124139 0.00241112 -0.799296 -79.8382 79.5773 80.5374 -0.000260653 -0.000218575 2.35937e-005 -0.000956235 0.000122984 -2.72892e-005 -66.7416 80.4058 67.2171 -0.000437138 1.48719e-005 -2.72968e-005 -0.000136612 -0.000109296 -5.4609e-005 -6.42159 81.2158 8.01779 -0.000218571 1.95694e-005 0.000212322 0.000901577 -0.000191258 -0.000218532 0.000811311 0.56661 89.91 -130.043 11.8531 -25.8229 1.19049e-006 -9.46426 -2.73404e-008 125.471 8.05496 -0.00762445 -6.62665e-009 11.9857 -6.49731e-010 -67.9806 12.1481 -7.51987 -37.4291 -0.00793512 -0.138073 -180 -0.566579 -90.09 -62.6918 12.681 -14.1034 -1.37431e-006 18.7572 -7.04825e-008 122.116 2.33599 -0.0069621 4.20431e-007 3.40199 1.0826e-007 -66.2511 -20.8389 10.812 -100.188 -23.1372 -39.1407 
-629.035 128.624 -723.516 33.0961 -51.4099 39.5855 -180 4.29621e-031 -90 3.19738 -2.80401 -0.329084 6.39013 -5.62243 -0.501757 6.39012 -5.62199 -0.501806 -3.64677 13.2816 4.80645 -11.8472 14.8887 -3.75382 120.092 75.5343 58.4939 29.0451 24.6234 -3.09459 -167.277 84.4999 48.8109 102.712 6.6986 25.5997 -1.57684e-005 41.7258 3.98536e-005 -66.5764 24.4421 0.612698 1.7939e-007 36.0114 -6.65259e-007 10.441 -1.82182 -19.7434 -72.0648 39.0385 39.3397 33.3638 2.10362 14.835 0.588947 0.308273 6.35287 -99.6409 81.413 100.35 -0.0181409 2.7751e-005 -0.117315 -0.124139 0.00241108 -0.799296 -79.8382 79.5773 80.5374 -0.000225764 -0.000220949 2.21687e-005 -0.000956209 0.000122859 -2.73556e-005 -66.7416 80.4058 67.2171 -0.00043712 1.59183e-005 -2.73467e-005 -0.000136587 -0.000109328 -5.46767e-005 -6.42159 81.2158 8.01779 -0.000218554 1.68712e-005 0.000212113 0.000901601 -0.000184852 -0.000218602 -59.9282 75.5373 58.5147 -8.94523 6.36128 4.38572 -167.277 84.4999 48.8109 -137.897 9.01056 12.4278 -9.61483e-006 29.6851 3.34772e-005 -99.393 17.2515 0.62952 -5.86925e-006 25.6072 2.45026e-006 -18.0255 1.97113 -12.3802 -72.0648 39.0385 39.3397 33.3638 2.10361 14.835 0.588946 0.308273 6.35287 -99.6409 81.413 100.35 -0.0181409 3.00689e-005 -0.117315 -0.124139 0.00241112 -0.799296 -79.8382 79.5773 80.5374 -0.000260653 -0.000218575 2.35937e-005 -0.000956235 0.000122984 -2.72892e-005 -66.7416 80.4058 67.2171 -0.000437138 1.48719e-005 -2.72968e-005 -0.000136612 -0.000109296 -5.4609e-005 -6.42159 81.2158 8.01779 -0.000218571 1.95694e-005 0.000212322 0.000901577 -0.000191258 -0.000218532 0.000811311 0.56661 89.91 -129.924 11.2615 -25.258 1.19039e-006 -9.6749 -2.73574e-008 126.014 7.78405 -0.00765004 -6.63135e-009 11.5801 -6.48773e-010 -67.2569 12.3674 -7.71676 -39.1917 -0.0122873 -0.264017 -180 -0.566579 -90.09 -61.4843 12.5186 -15.4398 -1.37436e-006 18.7158 -7.04653e-008 120.866 2.33105 -0.00703034 4.20448e-007 3.39303 1.08259e-007 -66.325 -21.0082 10.8875 -100.048 -23.4879 -39.3085 
-628.094 128.918 -722.962 33.287 -51.19 39.6349 -180 4.29621e-031 -90 3.19155 -2.77337 -0.421348 6.37387 -5.56629 -0.688462 6.37387 -5.56586 -0.68851 -0.433851 13.3277 4.19966 -15.1222 14.9129 -4.06554 120.092 75.5343 58.4939 28.1376 26.2879 -2.66394 -167.277 84.4999 48.8109 104.004 7.49788 24.6146 -1.59707e-005 41.9422 3.99885e-005 -67.1993 24.3752 0.615255 1.77989e-007 35.9138 -6.64437e-007 10.7103 -1.78326 -18.8535 -72.0648 39.0385 39.3397 33.3638 2.10362 14.835 0.588947 0.308273 6.35287 -99.6409 81.413 100.35 -0.0181409 2.7751e-005 -0.117315 -0.124139 0.00241108 -0.799296 -79.8382 79.5773 80.5374 -0.000225764 -0.000220949 2.21687e-005 -0.000956209 0.000122859 -2.73556e-005 -66.7416 80.4058 67.2171 -0.00043712 1.59183e-005 -2.73467e-005 -0.000136587 -0.000109328 -5.46767e-005 -6.42159 81.2158 8.01779 -0.000218554 1.68712e-005 0.000212113 0.000901601 -0.000184852 -0.000218602 -59.9282 75.5373 58.5147 -10.3189 6.95658 4.96046 -167.277 84.4999 48.8109 -136.134 8.43826 11.8808 -9.35354e-006 29.2951 3.33486e-005 -99.734 17.3447 0.629222 -5.87619e-006 25.7533 2.45326e-006 -17.6649 1.85822 -11.9165 -72.0648 39.0385 39.3397 33.3638 2.10361 14.835 0.588946 0.308273 6.35287 -99.6409 81.413 100.35 -0.0181409 3.00689e-005 -0.117315 -0.124139 0.00241112 -0.799296 -79.8382 79.5773 80.5374 -0.000260653 -0.000218575 2.35937e-005 -0.000956235 0.000122984 -2.72892e-005 -66.7416 80.4058 67.2171 -0.000437138 1.48719e-005 -2.72968e-005 -0.000136612 -0.000109296 -5.4609e-005 -6.42159 81.2158 8.01779 -0.000218571 1.95694e-005 0.000212322 0.000901577 -0.000191258 -0.000218532 0.000811311 0.56661 89.91 -129.488 10.5129 -24.3844 1.19041e-006 -9.63318 -2.7354e-008 126.613 7.44613 -0.00767534 -6.63719e-009 11.074 -6.47626e-010 -67.1148 12.5706 -7.84534 -40.7749 -0.0112987 -0.377205 -180 -0.566579 -90.09 -60.0736 12.2495 -16.5276 -1.37451e-006 18.5986 -7.04166e-008 119.497 2.10864 -0.00709997 4.21082e-007 3.05776 1.08223e-007 -66.4322 -20.7061 10.6881 -99.745 -24.4597 -39.8409 
-627.076 129.328 -722.404 33.698 -51.0824 39.7996 -180 4.29621e-031 -90 3.3975 -2.76957 -0.515096 6.78191 -5.56519 -0.866268 6.7819 -5.56476 -0.866319 -0.10131 13.1254 3.33106 -16.4316 14.3193 -2.87192 120.092 75.5343 58.4939 29.3042 25.8657 -3.12546 -167.277 84.4999 48.8109 103.234 7.50622 23.7913 -1.56512e-005 41.5999 3.97757e-005 -68.0553 23.9857 0.617224 1.69742e-007 35.3335 -6.59633e-007 10.9899 -1.76686 -18.213 -72.0648 39.0385 39.3397 33.3638 2.10362 14.835 0.588947 0.308273 6.35287 -99.6409 81.413 100.35 -0.0181409 2.7751e-005 -0.117315 -0.124139 0.00241108 -0.799296 -79.8382 79.5773 80.5374 -0.000225764 -0.000220949 2.21687e-005 -0.000956209 0.000122859 -2.73556e-005 -66.7416 80.4058 67.2171 -0.00043712 1.59183e-005 -2.73467e-005 -0.000136587 -0.000109328 -5.46767e-005 -6.42159 81.2158 8.01779 -0.000218554 1.68712e-005 0.000212113 0.000901601 -0.000184852 -0.000218602 -59.9282 75.5373 58.5147 -9.83673 7.36905 5.00333 -167.277 84.4999 48.8109 -136.37 8.74492 11.8205 -9.73215e-006 29.8592 3.35354e-005 -99.9876 17.0163 0.627627 -5.85309e-006 25.2656 2.44332e-006 -16.4946 1.81092 -12.4458 -72.0648 39.0385 39.3397 33.3638 2.10361 14.835 0.588946 0.308273 6.35287 -99.6409 81.413 100.35 -0.0181409 3.00689e-005 -0.117315 -0.124139 0.00241112 -0.799296 -79.8382 79.5773 80.5374 -0.000260653 -0.000218575 2.35937e-005 -0.000956235 0.000122984 -2.72892e-005 -66.7416 80.4058 67.2171 -0.000437138 1.48719e-005 -2.72968e-005 -0.000136612 -0.000109296 -5.4609e-005 -6.42159 81.2158 8.01779 -0.000218571 1.95694e-005 0.000212322 0.000901577 -0.000191258 -0.000218532 0.000811311 0.56661 89.91 -128.581 9.50402 -23.2422 1.19047e-006 -9.50005 -2.73433e-008 126.994 7.08307 -0.00770119 -6.64344e-009 10.53 -6.46454e-010 -67.5537 12.7297 -7.88577 -41.9817 -0.00143737 -0.463177 -180 -0.566579 -90.09 -58.3336 11.9357 -17.3858 -1.37461e-006 18.5228 -7.03853e-008 117.914 1.71294 -0.00717146 4.22207e-007 2.46241 1.08169e-007 -66.725 -19.4603 9.91277 -99.7045 -25.8832 -40.9987 
